
        <svg xmlns="http://www.w3.org/2000/svg" xmlns:xlink="http://www.w3.org/1999/xlink" version="1.1" width="2203.791469194313" height="3142.18009478673" viewBox="0 0 2203.791469194313 3142.18009478673">
			
			<g transform="scale(7.109004739336493) translate(10, 10)">
				<defs id="SvgjsDefs6022"/><g id="SvgjsG6023" featureKey="rootContainer" transform="matrix(1,0,0,1,0,0)" fill="#fff"><path xmlns="http://www.w3.org/2000/svg" fill-rule="evenodd" d="M5,65 L145,0 L285, 65 L145, 10 z M5,342 L145,422 L285,337 L145, 412 z"/></g><g id="SvgjsG6024" featureKey="symbolFeature-0" transform="matrix(0.301731123388582,0,0,0.301731123388582,83.9998746475023,90.0005007175846)" fill="#fff"><g xmlns="http://www.w3.org/2000/svg"><circle cx="231.911" cy="176.85" r="8"/><circle cx="151.911" cy="176.85" r="8"/><path d="M224.579,140.733c0.109-0.019,10.902-1.772,18.137,3.327c0.701,0.494,1.505,0.73,2.301,0.73   c1.256,0,2.494-0.591,3.273-1.695c1.272-1.806,0.841-4.302-0.965-5.574c-9.982-7.036-23.54-4.771-24.112-4.671   c-2.172,0.379-3.623,2.444-3.25,4.617C220.338,139.641,222.406,141.103,224.579,140.733z"/><path d="M160.59,132.85c-0.571-0.1-14.111-2.364-24.093,4.671c-1.806,1.272-2.237,3.769-0.965,5.574   c0.779,1.105,2.016,1.695,3.273,1.695c0.796,0,1.601-0.237,2.301-0.73c7.218-5.089,17.958-3.354,18.116-3.328   c2.17,0.377,4.24-1.079,4.62-3.253C164.222,135.303,162.766,133.231,160.59,132.85z"/><path d="M178.813,196.577c4.309,1.229,8.716,1.853,13.098,1.853s8.789-0.623,13.098-1.853c2.124-0.606,3.355-2.819,2.749-4.944   c-0.606-2.125-2.822-3.354-4.944-2.749c-7.189,2.051-14.615,2.051-21.805,0c-2.126-0.604-4.338,0.625-4.944,2.749   C175.458,193.758,176.689,195.971,178.813,196.577z"/><path d="M347.911,218.77c-32.025,0-58.08,26.055-58.08,58.08s26.055,58.08,58.08,58.08s58.08-26.055,58.08-58.08   S379.936,218.77,347.911,218.77z M347.911,326.93c-27.614,0-50.08-22.466-50.08-50.08s22.466-50.08,50.08-50.08   s50.08,22.466,50.08,50.08S375.525,326.93,347.911,326.93z"/><path d="M19.901,324.08c0.338,0,0.678-0.043,1.011-0.13c1.046-0.273,1.937-0.958,2.47-1.898l9.17-16.19   c1.089-1.923,0.413-4.363-1.509-5.452c-1.922-1.087-4.363-0.412-5.452,1.509l-4.909,8.667c-6.432-18.793-9.691-38.461-9.691-58.585   c0-17.771,2.571-35.332,7.641-52.198c0.636-2.115-0.563-4.346-2.679-4.982c-2.114-0.636-4.346,0.564-4.982,2.68   C5.675,215.113,2.991,233.449,2.991,252c0,20.173,3.147,39.907,9.344,58.821l-6.261-3.793c-1.89-1.142-4.349-0.539-5.494,1.35   c-1.145,1.89-0.541,4.35,1.349,5.494l15.9,9.63C18.459,323.884,19.177,324.08,19.901,324.08z"/><path d="M311.887,397.91c9.929-8.178,18.993-17.332,27.062-27.327l1.422,11.459c0.251,2.025,1.975,3.509,3.965,3.508   c0.164,0,0.33-0.01,0.498-0.03c2.192-0.272,3.749-2.27,3.477-4.462l-2.62-21.12c-0.146-1.17-0.799-2.216-1.787-2.859   s-2.208-0.819-3.337-0.479l-23.43,7.061c-2.115,0.638-3.313,2.869-2.676,4.984s2.869,3.316,4.984,2.676l11.407-3.437   c-7.048,8.442-14.866,16.218-23.331,23.263c-24.043-35.535-52.612-54.025-72.982-63.396l-14.636-20.225l0.007-11.833   c25.216-9.186,45.882-28.869,55.433-44.788c2.3-3.839,4.493-8.57,6.536-14.084c11.778-0.158,22.865-8.74,27.697-21.871   c5.978-16.263-0.021-33.902-13.362-39.965c4.019-6.853,11.001-20.246,11.266-30.978c0.178-7.312-1.749-15.003-3.744-20.918   c1.722,0.438,3.456,0.679,5.199,0.679c0.628,0,1.257-0.035,1.886-0.092c31.191,13.78,53.314,46.398,56.423,83.299   c0.176,2.087,1.924,3.664,3.981,3.664c0.112,0,0.226-0.005,0.34-0.014c2.201-0.186,3.835-2.121,3.65-4.322   c-3.102-36.822-23.887-69.733-53.793-86.279c0.369-0.221,0.738-0.436,1.106-0.677c1.193-0.779,1.881-2.135,1.806-3.559   c-0.075-1.423-0.902-2.699-2.17-3.349c-7.479-3.833-12.532-12.376-18.929-23.192c-9.272-15.678-21.971-37.148-50.088-56.38   c-29.863-20.42-61.927-21.735-90.216-22.896c-20.145-0.827-39.172-1.607-53.616-9.484c-1.298-0.707-2.879-0.644-4.115,0.171   c-1.234,0.813-1.92,2.24-1.783,3.712c1.549,16.614,8.872,24.79,17.211,28.587c-16.263,8.952-26.706,23.51-36.115,36.626   c-1.879,2.619-3.677,5.121-5.5,7.568c-2.955-0.455-5.958-0.692-8.963-0.692c-32.025,0-58.08,26.05-58.08,58.07   c0,32.025,26.055,58.08,58.08,58.08c1.056,0,2.111-0.039,3.165-0.095c-2.009,7.052-1.695,15.027,1.031,22.436   c4.832,13.131,15.917,21.714,27.696,21.87c2.043,5.513,4.236,10.245,6.537,14.086c9.55,15.916,30.215,35.599,55.432,44.785   l0.007,11.833l-14.638,20.227c-12.635,5.798-24.652,13.328-35.796,22.41c-11.036-12.462-26.64-19.543-43.435-19.543   c-32.025,0-58.08,26.055-58.08,58.08c0,24.38,15.447,46.21,38.05,54.524c-6.312,17.174-11.334,36-14.908,56.075   c-0.208,1.165,0.112,2.362,0.872,3.27c0.76,0.907,1.883,1.432,3.066,1.432h305.72c1.184,0,2.306-0.524,3.066-1.432   c0.76-0.906,1.08-2.104,0.872-3.269C341.708,459.937,329.314,425.859,311.887,397.91z M302.067,212.19   c-3.196,8.684-10.06,14.901-17.41,16.327c3.918-12.935,6.961-28.605,8.914-45.908C302.674,187.266,306.499,200.132,302.067,212.19z    M70.051,184.611c-27.614,0-50.08-22.466-50.08-50.08c0-27.608,22.466-50.07,50.08-50.07c1.045,0,2.088,0.044,3.13,0.108   c-4.04,4.797-8.755,9.558-14.38,13.097c-1.148,0.722-1.852,1.977-1.87,3.333c-0.018,1.356,0.653,2.629,1.781,3.382   c7.651,5.098,15.264,6.766,22.481,5.048c-2.867,7.454-5.993,18.112-5.993,29.172c0,14.795,7.762,29.332,12.234,36.481   c-4.161,1.928-7.708,5.006-10.38,9.036C74.748,184.44,72.401,184.611,70.051,184.611z M81.755,212.189   c-2.835-7.703-2.384-16.087,1.206-22.425c1.815-3.2,4.313-5.654,7.288-7.176c1.952,17.31,4.997,32.988,8.917,45.931   C91.812,227.094,84.95,220.875,81.755,212.189z M115.342,246.794c-2.401-4.008-4.706-9.191-6.849-15.404   c-4.857-14.12-8.668-33.274-10.753-53.985c0.535-2.774,1.028-5.516,1.5-8.171c1.68-9.432,3.217-18.059,6.315-25.501   c1.038,5.603,3.479,10.778,7.122,14.54c0.945,0.977,2.32,1.406,3.654,1.141c1.333-0.265,2.439-1.188,2.939-2.451   c7.692-19.438,21.227-44.521,43.501-60.608c-2.886,10.019-2.426,20.309,1.394,30.724c0.394,1.074,1.229,1.928,2.293,2.347   c1.064,0.418,2.257,0.359,3.277-0.159c6.427-3.273,11.965-7.258,16.587-11.927l-4.689,20.364c-0.37,1.607,0.285,3.277,1.649,4.205   c1.364,0.928,3.158,0.923,4.517-0.013c20.913-14.396,35.743-30.426,44.286-47.83c3.476,18.692,12.515,34.076,26.999,45.886   c1.054,0.858,2.471,1.124,3.766,0.703c1.143-0.372,2.05-1.235,2.484-2.339c3.293,13.767,10.141,27.044,20.638,40.145   c-2.107,20.306-5.869,39.051-10.641,52.926c-2.145,6.217-4.449,11.4-6.849,15.406c-8.836,14.727-29.448,34.232-53.82,42.258   c-7.663,2.521-15.317,3.8-22.75,3.8s-15.087-1.278-22.749-3.8C144.789,281.025,124.177,261.519,115.342,246.794z M171.92,307.352   l-0.006-9.165c6.72,1.759,13.425,2.663,19.997,2.663s13.277-0.904,19.997-2.663l-0.006,9.165l-19.991,23.574L171.92,307.352z    M174.345,352.995h-0.005v-0.005L174.345,352.995z M19.971,388.7c0-27.614,22.466-50.08,50.08-50.08   c14.428,0,27.836,6.064,37.348,16.738c-23.026,20.548-41.341,47.561-54.51,80.397C33.34,428.618,19.971,409.764,19.971,388.7z    M99.921,496v-57.36c0-2.209-1.791-4-4-4s-4,1.791-4,4V496H43.857c3.7-19.339,8.768-37.431,15.086-53.843   c13.322-34.607,32.37-62.646,56.614-83.335c10.694-9.13,22.282-16.7,34.481-22.579l12.478,25.921   c0.547,1.136,1.597,1.947,2.834,2.189c0.256,0.051,0.514,0.075,0.77,0.075c0.982,0,1.94-0.362,2.682-1.032l3.939-3.56l7.159,18.119   L164.421,496H99.921z M172.489,496l15.477-118.029c0.088-0.674,0.004-1.358-0.246-1.99l-8.644-21.879l12.851-11.615l12.866,11.482   l-8.693,22.012c-0.25,0.632-0.334,1.317-0.246,1.991L211.361,496H172.489z M291.901,496v-57.36c0-2.209-1.791-4-4-4s-4,1.791-4,4   V496h-64.472l-15.508-118.044l7.232-18.312l4.224,3.77c0.74,0.66,1.69,1.016,2.664,1.016c0.266,0,0.534-0.026,0.8-0.081   c1.237-0.252,2.283-1.074,2.82-2.218l12.161-25.874c19.9,9.63,46.962,28.147,69.451,62.966   c17.147,26.508,29.482,59.048,36.693,96.777H291.901z"/></g></g><g id="SvgjsG6025" featureKey="nameFeature-0" transform="matrix(1.2646083670754042,0,0,1.2646083670754042,-0.5058428644203538,246.82470080111966)" fill="#fff"><path d="M0.4 40 l0 -4.48 l0.84 -0.56 l3.64 -17.92 l-0.84 -0.56 l0 -4.48 l10.64 0 l0 4.48 l-0.84 0.56 l3.64 17.92 l0.84 0.56 l0 4.48 l-4.96 0 l-1.24 -6.16 l-5.52 0 l-1.24 6.16 l-4.96 0 z M7.64 28.8 l3.44 0 l-1.72 -8.56 z M19.919999999999998 40 l0 -4.48 l0.84 -0.56 l0 -17.92 l-0.84 -0.56 l0 -4.48 l12.52 0 l3.72 3.72 l0 8.24 l-2.04 2.04 l2.04 2.04 l0 8.24 l-3.72 3.72 l-12.52 0 z M25.799999999999997 34.96 l4.56 0 l0.76 -0.76 l0 -4.08 l-1.6 -1.6 l-3.72 0 l0 6.44 z M25.799999999999997 23.48 l3.72 0 l1.6 -1.6 l0 -4.08 l-0.76 -0.76 l-4.56 0 l0 6.44 z M38.56 40 l0 -4.48 l0.84 -0.56 l0 -17.92 l-0.84 -0.56 l0 -4.48 l6.72 0 l0 4.48 l-0.84 0.56 l0 6.44 l6.16 0 l0 -6.44 l-0.84 -0.56 l0 -4.48 l6.72 0 l0 4.48 l-0.84 0.56 l0 17.92 l0.84 0.56 l0 4.48 l-6.72 0 l0 -4.48 l0.84 -0.56 l0 -6.44 l-6.16 0 l0 6.44 l0.84 0.56 l0 4.48 l-6.72 0 z M58.88 40 l0 -4.48 l0.84 -0.56 l0 -17.92 l-0.84 -0.56 l0 -4.48 l6.72 0 l0 4.48 l-0.84 0.56 l0 17.92 l0.84 0.56 l0 4.48 l-6.72 0 z M71.72 40 l-3.72 -3.72 l0 -5.24 l5.04 0 l0 3.16 l0.76 0.76 l4.08 0 l0.76 -0.76 l0 -4.92 l-0.76 -0.76 l-6.16 0 l-3.72 -3.72 l0 -9.08 l3.72 -3.72 l8.24 0 l3.72 3.72 l0 5.24 l-5.04 0 l0 -3.16 l-0.76 -0.76 l-4.08 0 l-0.76 0.76 l0 4.92 l0.76 0.76 l6.16 0 l3.72 3.72 l0 9.08 l-3.72 3.72 l-8.24 0 z M86.08 40 l0 -4.48 l0.84 -0.56 l0 -17.92 l-0.84 -0.56 l0 -4.48 l6.72 0 l0 4.48 l-0.84 0.56 l0 6.44 l6.16 0 l0 -6.44 l-0.84 -0.56 l0 -4.48 l6.72 0 l0 4.48 l-0.84 0.56 l0 17.92 l0.84 0.56 l0 4.48 l-6.72 0 l0 -4.48 l0.84 -0.56 l0 -6.44 l-6.16 0 l0 6.44 l0.84 0.56 l0 4.48 l-6.72 0 z M106.39999999999999 40 l0 -4.48 l0.84 -0.56 l0 -17.92 l-0.84 -0.56 l0 -4.48 l14.56 0 l0 5.88 l-4.48 0 l-0.56 -0.84 l-3.64 0 l0 6.44 l6.44 0 l0 5.04 l-6.44 0 l0 6.44 l3.64 0 l0.56 -0.84 l4.48 0 l0 5.88 l-14.56 0 z M123.36 40 l0 -4.48 l0.84 -0.56 l0 -17.92 l-0.84 -0.56 l0 -4.48 l6.72 0 l0 4.48 l-0.84 0.56 l0 7.84 l5.32 -6.76 l0 -1.08 l-0.84 -0.56 l0 -4.48 l6.72 0 l0 4.48 l-0.84 0.56 l0 2.84 l-3.64 4.64 l3.64 4.52 l0 5.92 l0.84 0.56 l0 4.48 l-6.72 0 l0 -4.48 l0.84 -0.56 l0 -4.16 l-1.8 -2.2 l-3.52 4.44 l0 1.92 l0.84 0.56 l0 4.48 l-6.72 0 z M150.03999999999996 40 l0 -4.48 l0.84 -0.56 l0 -17.92 l-0.84 -0.56 l0 -4.48 l12.8 0 l3.72 3.72 l0 10.76 l-3.72 3.72 l-6.92 0 l0 4.76 l0.84 0.56 l0 4.48 l-6.72 0 z M155.92 25.16 l4.84 0 l0.76 -0.76 l0 -6.6 l-0.76 -0.76 l-4.84 0 l0 8.12 z M168.16 40 l0 -4.48 l0.84 -0.56 l3.64 -17.92 l-0.84 -0.56 l0 -4.48 l10.64 0 l0 4.48 l-0.84 0.56 l3.64 17.92 l0.84 0.56 l0 4.48 l-4.96 0 l-1.24 -6.16 l-5.52 0 l-1.24 6.16 l-4.96 0 z M175.39999999999998 28.8 l3.44 0 l-1.72 -8.56 z M192.72 40 l0 -4.48 l0.84 -0.56 l0 -17.92 l-0.84 0 l-0.56 0.84 l-4.48 0 l0 -5.88 l16.8 0 l0 5.88 l-4.48 0 l-0.56 -0.84 l-0.84 0 l0 17.92 l0.84 0.56 l0 4.48 l-6.72 0 z M206.87999999999997 40 l0 -4.48 l0.84 -0.56 l0 -17.92 l-0.84 -0.56 l0 -4.48 l6.72 0 l0 4.48 l-0.84 0.56 l0 17.92 l0.84 0.56 l0 4.48 l-6.72 0 z M215.99999999999997 40 l0 -4.48 l0.84 -0.56 l0 -17.92 l-0.84 -0.56 l0 -4.48 l6.72 0 l0 4.48 l-0.84 0.56 l0 17.92 l2.8 0 l0.56 -0.84 l4.48 0 l0 5.88 l-13.72 0 z"/></g><g id="SvgjsG6026" featureKey="sloganFeature-0" transform="matrix(1.0280431007571966,0,0,1.0280431007571966,65.00000051127283,311.2018385196154)" fill="#fff"><path d="M4.66 11.52 c0.44 0.44 0.72 1.04 0.72 1.7 l0 4.38 c0 1.32 -1.08 2.4 -2.4 2.4 l-2.96 0 l-0.02 -14.24 l2.64 0 c1.46 0.06 2.32 1.46 2.3 2.78 l-0.02 1.98 c0 0.36 -0.1 0.7 -0.26 1 z M2.98 18.08 c0.28 0 0.5 -0.22 0.5 -0.48 l-0.02 -4.38 c0 -0.28 -0.22 -0.48 -0.48 -0.48 l-1.06 0 l0 5.34 l1.06 0 z M1.9 7.66 l0 3.16 l0.8 0 c0.16 0 0.32 -0.14 0.32 -0.32 l0.02 -1.98 c0 -0.4 -0.2 -0.84 -0.48 -0.86 l-0.66 0 z M10.5945 20.04 c-1.62 0 -2.94 -1.32 -2.94 -2.94 l0 -11.36 l1.9 0 l0 11.36 c0 0.58 0.46 1.06 1.04 1.06 s1.04 -0.48 1.04 -1.06 l0 -11.36 l1.9 0 l0 11.36 c0 1.62 -1.32 2.94 -2.94 2.94 z M17.929 5.68 l0 14.24 l-1.9 0 l0 -14.24 l1.9 0 z M22.3035 18.12 l2.76 0 l0 1.88 l-4.64 0 l0 -14.36 l1.88 0 l0 12.48 z M30.058 20.02 l-2.5 0 l0 -14.26 l2.5 0 c1.7 0 3.06 1.38 3.06 3.08 l0 8.1 c0 0.82 -0.32 1.6 -0.9 2.18 s-1.34 0.9 -2.16 0.9 z M29.458 7.68 l0 10.42 l0.6 0 c0.3 0 0.6 -0.12 0.82 -0.34 s0.34 -0.5 0.34 -0.82 l0 -8.1 c0 -0.64 -0.52 -1.16 -1.16 -1.16 l-0.6 0 z M48.187 5.720000000000001 l-2.68 8.68 l0 5.6 l-1.94 0 l0 -5.62 l-2.46 -8.66 l2 0 l1.46 5.14 l1.6 -5.14 l2.02 0 z M53.3815 20.02 c-1.5 0 -2.7 -1.22 -2.7 -2.7 l0 -8.98 c0 -1.48 1.2 -2.68 2.7 -2.68 c1.48 0 2.68 1.2 2.68 2.68 l0 8.98 c0 1.48 -1.2 2.7 -2.68 2.7 z M53.3815 7.5600000000000005 c-0.44 0 -0.78 0.36 -0.78 0.78 l0 8.98 c0 0.44 0.34 0.78 0.78 0.78 c0.42 0 0.78 -0.34 0.78 -0.78 l0 -8.98 c0 -0.42 -0.36 -0.78 -0.78 -0.78 z M61.495999999999995 20.04 c-1.62 0 -2.94 -1.32 -2.94 -2.94 l0 -11.36 l1.9 0 l0 11.36 c0 0.58 0.46 1.06 1.04 1.06 s1.04 -0.48 1.04 -1.06 l0 -11.36 l1.9 0 l0 11.36 c0 1.62 -1.32 2.94 -2.94 2.94 z M72.4105 20.04 l-2.04 0 l-1.1 -3.02 l-0.44 0 l0 3.02 l-1.9 0 l0 -14.32 l2.98 0 c1.32 0 2.38 1.06 2.38 2.38 l0 6.54 c0 0.86 -0.44 1.6 -1.12 2.02 z M68.8305 7.619999999999999 l0 7.5 l1.08 0 c0.26 0 0.48 -0.22 0.48 -0.48 l0 -6.54 c0 -0.26 -0.22 -0.48 -0.48 -0.48 l-1.08 0 z M83.0995 20.02 c-1.5 0 -2.7 -1.22 -2.7 -2.7 l0 -8.98 c0 -1.48 1.2 -2.68 2.7 -2.68 c1.48 0 2.68 1.2 2.68 2.68 l0 8.98 c0 1.48 -1.2 2.7 -2.68 2.7 z M83.0995 7.5600000000000005 c-0.44 0 -0.78 0.36 -0.78 0.78 l0 8.98 c0 0.44 0.34 0.78 0.78 0.78 c0.42 0 0.78 -0.34 0.78 -0.78 l0 -8.98 c0 -0.42 -0.36 -0.78 -0.78 -0.78 z M95.79400000000001 5.720000000000001 l1.92 0 l-1.86 14.28 l-1.98 0 l-1 -7.16 l-0.94 7.16 l-1.98 0 l-2 -14.28 l1.92 0 l1.04 7.36 l0.96 -7.36 l1.92 0 l1.04 7.36 z M104.84850000000002 16.72 l0.08 -11.08 l1.92 0 l-0.12 14.44 l-2.98 0 l-1.62 -11.18 l0 11.18 l-1.92 0 l0 -14.44 l3.1 0 z M122.67750000000002 5.720000000000001 l1.92 0 l-1.86 14.28 l-1.98 0 l-1 -7.16 l-0.94 7.16 l-1.98 0 l-2 -14.28 l1.92 0 l1.04 7.36 l0.96 -7.36 l1.92 0 l1.04 7.36 z M129.792 20.02 c-1.5 0 -2.7 -1.22 -2.7 -2.7 l0 -8.98 c0 -1.48 1.2 -2.68 2.7 -2.68 c1.48 0 2.68 1.2 2.68 2.68 l0 8.98 c0 1.48 -1.2 2.7 -2.68 2.7 z M129.792 7.5600000000000005 c-0.44 0 -0.78 0.36 -0.78 0.78 l0 8.98 c0 0.44 0.34 0.78 0.78 0.78 c0.42 0 0.78 -0.34 0.78 -0.78 l0 -8.98 c0 -0.42 -0.36 -0.78 -0.78 -0.78 z M140.44650000000001 20.04 l-2.04 0 l-1.1 -3.02 l-0.44 0 l0 3.02 l-1.9 0 l0 -14.32 l2.98 0 c1.32 0 2.38 1.06 2.38 2.38 l0 6.54 c0 0.86 -0.44 1.6 -1.12 2.02 z M136.86650000000003 7.619999999999999 l0 7.5 l1.08 0 c0.26 0 0.48 -0.22 0.48 -0.48 l0 -6.54 c0 -0.26 -0.22 -0.48 -0.48 -0.48 l-1.08 0 z M144.82100000000003 18.12 l2.76 0 l0 1.88 l-4.64 0 l0 -14.36 l1.88 0 l0 12.48 z M152.57550000000003 20.02 l-2.5 0 l0 -14.26 l2.5 0 c1.7 0 3.06 1.38 3.06 3.08 l0 8.1 c0 0.82 -0.32 1.6 -0.9 2.18 s-1.34 0.9 -2.16 0.9 z M151.97550000000004 7.68 l0 10.42 l0.6 0 c0.3 0 0.6 -0.12 0.82 -0.34 s0.34 -0.5 0.34 -0.82 l0 -8.1 c0 -0.64 -0.52 -1.16 -1.16 -1.16 l-0.6 0 z"/></g>
			</g>
		</svg>
	